Take Shelter (2011) 1080p MKV x264 AC3+DTS MultiSubs
.
[IMG]http://img824.imageshack.us/img824/4366/tsbr2011.jpg[/IMG]
.
Verenigde Staten
Drama / Thriller
120 minuten

geregisseerd door Jeff Nichols
met Michael Shannon, Jessica Chastain en Katy Mixon

Curtis LaForche woont in een klein stadje in Ohio samen met zijn vrouw Samantha en dochter Hannah, een 6-jarig doof meisje. Wanneer Curtis angstaanjagende dromen krijgt, houdt hij de visioenen voor zichzelf. Hij probeert zijn angst te onderdrukken door obsessief een stormbunker te bouwen in zijn achtertuin. Zijn schijnbaar onverklaarbare gedrag zorgt voor verwarring in zijn omgeving, maar de daaruit vloeiende spanningen in zijn huwelijk en de gemeenschap vallen in het niet bij wat zijn dromen werkelijk betekenen...

Vanaf april in de bioscoop
. 
http://www.moviemeter.nl/film/72940
.
PLOT
.
Plagued by a series of apocalyptic visions, a young husband and father questions whether to shelter his family from a coming storm, or from himself. 
. 
http://www.imdb.com/title/tt1675192/
.
INFO
.
NL Vertaling: SRT-TEAM
.
General
Format                           : Matroska
Format version                   : Version 2
File size                        : 9.28 GiB
Duration                         : 2h 1mn
Overall bit rate                 : 11.0 Mbps
Encoded date                     : UTC 2012-02-02 10:41:18
Writing application              : mkvmerge v5.2.0 ('I can't explain') built on Dec 18 2011 18:12:03
Writing library                  : libebml v1.2.3 + libmatroska v1.3.0

Video
ID                               : 1
Format                           : AVC
Format/Info                      : Advanced Video Codec
Format profile                   : High@L4.1
Format settings, CABAC           : Yes
Format settings, ReFrames        : 5 frames
Codec ID                         : V_MPEG4/ISO/AVC
Duration                         : 2h 1mn
Bit rate                         : 8 830 Kbps
Width                            : 1 920 pixels
Height                           : 816 pixels
Display aspect ratio             : 2.35:1
Frame rate                       : 23.976 fps
Color space                      : YUV
Chroma subsampling               : 4:2:0
Bit depth                        : 8 bits
Scan type                        : Progressive
Bits/(Pixel*Frame)               : 0.235
Stream size                      : 7.28 GiB (78%)
Writing library                  : x264 core 120 r2146 bcd41db
Encoding settings                : cabac=1 / ref=5 / deblock=1:0:0 / analyse=0x3:0x113 / me=umh / subme=8 / psy=1 / psy_rd=1.00:0.00 / mixed_ref=1 / me_range=16 / chroma_me=1 / trellis=1 / 8x8dct=1 / cqm=0 / deadzone=21,11 / fast_pskip=1 / chroma_qp_offset=-2 / threads=12 / sliced_threads=0 / nr=0 / decimate=1 / interlaced=0 / bluray_compat=0 / constrained_intra=0 / bframes=3 / b_pyramid=2 / b_adapt=2 / b_bias=0 / direct=3 / weightb=1 / open_gop=0 / weightp=2 / keyint=240 / keyint_min=24 / scenecut=40 / intra_refresh=0 / rc_lookahead=50 / rc=2pass / mbtree=1 / bitrate=8830 / ratetol=1.0 / qcomp=0.60 / qpmin=0 / qpmax=69 / qpstep=4 / cplxblur=20.0 / qblur=0.5 / ip_ratio=1.40 / aq=1:1.00
Language                         : English
Default                          : Yes
Forced                           : No

Audio #1
ID                               : 2
Format                           : DTS
Format/Info                      : Digital Theater Systems
Codec ID                         : A_DTS
Duration                         : 2h 1mn
Bit rate mode                    : Constant
Bit rate                         : 1 510 Kbps
Channel(s)                       : 6 channels
Channel positions                : Front: L C R, Side: L R, LFE
Sampling rate                    : 48.0 KHz
Bit depth                        : 24 bits
Compression mode                 : Lossy
Stream size                      : 1.28 GiB (14%)
Title                            : DTS
Language                         : English
Default                          : Yes
Forced                           : No

Audio #2
ID                               : 3
Format                           : AC-3
Format/Info                      : Audio Coding 3
Mode extension                   : CM (complete main)
Codec ID                         : A_AC3
Duration                         : 2h 1mn
Bit rate mode                    : Constant
Bit rate                         : 640 Kbps
Channel(s)                       : 6 channels
Channel positions                : Front: L C R, Side: L R, LFE
Sampling rate                    : 48.0 KHz
Bit depth                        : 16 bits
Compression mode                 : Lossy
Stream size                      : 554 MiB (6%)
Title                            : AC3
Language                         : English
Default                          : No
Forced                           : No

Text #1
ID                               : 4
Format                           : UTF-8
Codec ID                         : S_TEXT/UTF8
Codec ID/Info                    : UTF-8 Plain Text
Language                         : Dutch
Default                          : Yes
Forced                           : No

Text #2
ID                               : 5
Format                           : UTF-8
Codec ID                         : S_TEXT/UTF8
Codec ID/Info                    : UTF-8 Plain Text
Title                            : English FHI
Language                         : English
Default                          : No
Forced                           : No

Text #3
ID                               : 6
Format                           : UTF-8
Codec ID                         : S_TEXT/UTF8
Codec ID/Info                    : UTF-8 Plain Text
Title                            : English Normal
Language                         : English
Default                          : No
Forced                           : No

Text #4
ID                               : 7
Format                           : UTF-8
Codec ID                         : S_TEXT/UTF8
Codec ID/Info                    : UTF-8 Plain Text
Title                            : Brazilian
Default                          : No
Forced                           : No

Text #5
ID                               : 8
Format                           : UTF-8
Codec ID                         : S_TEXT/UTF8
Codec ID/Info                    : UTF-8 Plain Text
Language                         : Romanian
Default                          : No
Forced                           : No

Menu
00:00:00.000                     : en:00:00:00.000
00:06:44.237                     : en:00:06:44.237
00:14:47.011                     : en:00:14:47.011
00:21:01.760                     : en:00:21:01.760
00:29:08.789                     : en:00:29:08.789
00:35:32.589                     : en:00:35:32.589
00:43:12.715                     : en:00:43:12.715
00:49:06.235                     : en:00:49:06.235
00:57:22.272                     : en:00:57:22.272
01:02:08.308                     : en:01:02:08.308
01:09:15.193                     : en:01:09:15.193
01:18:01.760                     : en:01:18:01.760
01:24:58.385                     : en:01:24:58.385
01:34:16.568                     : en:01:34:16.568
01:42:42.323                     : en:01:42:42.323
01:50:54.356                     : en:01:50:54.356


.
Enjoy
